<?xml version="1.0" standalone="no"?>
<!DOCTYPE svg PUBLIC "-//W3C//DTD SVG 20010904//EN"
 "http://www.w3.org/TR/2001/REC-SVG-20010904/DTD/svg10.dtd">
<svg version="1.0" xmlns="http://www.w3.org/2000/svg"
 width="180.000000pt" height="180.000000pt" viewBox="0 0 180.000000 180.000000"
 preserveAspectRatio="xMidYMid meet">

<g transform="translate(0.000000,180.000000) scale(0.100000,-0.100000)"
fill="#000000" stroke="none">
<path d="M0 1485 c0 -173 4 -315 8 -315 33 0 173 53 231 87 2 2 -4 12 -14 23
-25 28 -13 50 29 50 37 0 71 -31 82 -77 4 -12 11 -23 16 -23 6 0 8 -7 4 -15
-7 -20 3 -19 26 1 14 14 20 15 33 4 14 -12 13 -16 -7 -39 -20 -22 -20 -23 -2
-8 26 21 37 11 53 -48 17 -62 13 -126 -9 -155 -12 -15 -19 -39 -19 -60 l1 -35
8 38 c4 21 13 43 19 50 10 9 12 -2 10 -53 -1 -36 -6 -73 -11 -83 -5 -11 -11
-33 -14 -50 -5 -43 -56 -122 -77 -121 -14 2 -17 -8 -17 -50 0 -28 -3 -62 -7
-75 -5 -21 -4 -23 13 -16 10 4 28 8 39 7 11 0 15 2 10 4 -14 6 -6 84 9 84 6 0
12 -9 12 -20 0 -11 -3 -20 -7 -20 -3 0 -4 -20 -2 -45 4 -33 1 -45 -9 -45 -10
0 -9 -3 2 -10 13 -8 12 -10 -4 -10 -13 0 -17 5 -14 18 4 12 -1 18 -13 18 -10
0 -15 -5 -12 -10 4 -5 -1 -7 -11 -3 -10 4 -15 3 -11 -3 3 -6 1 -10 -5 -10 -6
0 -9 -4 -5 -9 3 -5 0 -13 -6 -16 -11 -7 -6 123 8 189 5 29 33 68 33 47 0 -24
16 -9 37 34 12 25 18 43 13 40 -16 -10 -31 34 -24 70 8 46 24 35 19 -13 l-5
-37 9 34 c5 19 5 46 0 65 -5 17 -9 48 -9 69 0 30 5 40 25 49 17 7 25 19 25 35
0 14 -4 21 -10 18 -5 -3 -10 -13 -10 -21 0 -8 -4 -14 -10 -14 -16 0 -12 50 5
56 10 4 15 19 15 43 l0 36 -21 -35 c-19 -30 -23 -32 -28 -17 -6 17 -8 17 -25
-1 -16 -19 -16 -20 0 -18 25 2 32 -44 24 -145 -8 -85 -22 -139 -38 -139 -5 0
-15 20 -22 45 -7 24 -17 42 -22 39 -9 -6 -1 -45 12 -54 4 -3 9 -15 13 -28 4
-19 3 -21 -9 -11 -16 13 -17 2 -4 -41 l7 -25 11 27 c6 14 15 29 20 32 17 10
35 -22 27 -51 -6 -27 -7 -27 -21 -9 -11 16 -14 17 -14 4 0 -8 -8 -22 -17 -29
-10 -7 -15 -9 -11 -5 4 5 3 15 -4 23 -6 8 -12 34 -12 58 -1 25 -4 45 -8 45 -4
0 -7 19 -6 43 1 73 -5 143 -9 120 -2 -13 -8 -23 -12 -23 -10 0 -77 -98 -92
-135 -14 -36 -19 -86 -7 -79 4 3 8 -5 8 -18 1 -22 1 -22 15 -4 13 17 15 17 15
4 0 -9 -5 -20 -10 -23 -6 -3 -10 -11 -10 -16 0 -6 5 -7 10 -4 6 3 13 0 16 -9
7 -19 -14 -59 -27 -50 -5 3 -16 1 -24 -6 -18 -15 -69 -24 -60 -10 8 13 -8 13
-22 -1 -8 -8 -13 -8 -17 0 -4 6 -13 11 -19 11 -7 0 2 -11 18 -24 17 -13 27
-27 24 -31 -9 -8 -69 44 -69 60 0 7 -8 19 -17 26 -18 15 -18 16 4 -38 4 -11 3
-14 -5 -9 -7 4 -12 1 -12 -8 0 -9 4 -16 10 -16 5 0 16 -13 25 -30 12 -24 13
-30 2 -30 -7 0 -19 6 -26 13 -10 10 -12 2 -10 -40 l3 -53 63 0 63 0 0 -45 0
-45 -50 0 -50 0 0 -95 c0 -95 0 -95 25 -95 20 0 25 5 25 25 0 16 -6 25 -15 25
-11 0 -15 12 -15 45 l0 45 40 0 40 0 0 -80 c0 -48 -6 -95 -14 -115 -14 -33
-17 -35 -65 -35 -47 0 -51 -2 -51 -24 0 -17 7 -25 23 -29 46 -10 507 -8 527 3
11 6 20 7 20 1 0 -5 67 -8 158 -7 155 1 157 1 160 24 5 32 32 28 33 -5 l1 -28
10 28 c11 31 31 31 36 1 3 -18 13 -19 205 -19 111 0 207 3 214 8 6 4 14 3 18
-3 3 -5 13 -10 22 -10 13 0 13 3 3 15 -7 9 -10 18 -7 21 3 3 10 -4 17 -15 10
-20 18 -21 185 -20 l175 0 0 32 0 32 -88 0 -87 0 -14 58 c-7 31 -17 57 -22 57
-4 0 -9 -26 -11 -58 -3 -50 -6 -57 -25 -60 l-23 -3 0 185 0 186 55 0 c72 0 76
-8 75 -167 -1 -71 3 -141 9 -158 7 -22 10 9 10 122 1 189 6 203 73 203 l48 0
0 68 c0 62 -3 71 -35 111 -40 51 -42 55 -50 173 -5 70 -12 99 -36 144 -33 64
-34 71 -15 93 12 13 12 19 1 34 -8 12 -15 14 -20 8 -3 -6 -11 -11 -17 -11 -6
0 -2 10 10 23 22 23 18 42 -8 42 -17 0 -26 33 -13 46 12 12 43 1 43 -16 0 -6
10 -20 22 -31 12 -10 18 -14 15 -7 -4 6 -3 14 3 18 5 3 10 -1 10 -9 0 -21 17
-20 29 2 5 9 12 16 15 15 3 -2 14 -3 24 -3 11 1 7 6 -13 17 -16 9 -25 18 -18
20 7 2 21 -1 32 -7 21 -11 21 -9 21 111 0 99 -3 126 -16 140 -15 17 -15 20 0
43 13 21 16 54 16 186 l0 160 -69 0 c-64 0 -70 -2 -76 -22 -4 -13 -15 -32 -25
-43 -10 -11 -21 -42 -25 -68 -5 -39 -3 -53 11 -69 18 -18 18 -22 1 -86 -10
-36 -19 -68 -22 -70 -2 -3 -12 1 -22 9 -13 11 -15 11 -9 1 14 -23 13 -91 -1
-96 -7 -3 -13 -10 -13 -16 0 -6 4 -8 10 -5 6 3 7 -1 3 -10 -4 -12 -8 -13 -13
-5 -5 7 -10 8 -13 3 -4 -6 5 -21 18 -33 26 -25 31 -45 16 -69 -8 -12 -16 -10
-50 12 -46 30 -53 42 -19 31 20 -6 21 -5 9 10 -11 13 -11 16 0 16 26 1 -36 39
-95 60 -73 24 -98 26 -70 5 18 -14 18 -14 -6 -15 -18 -1 -8 -8 37 -27 35 -15
62 -28 60 -29 -1 -1 -47 8 -102 22 -55 13 -122 27 -148 30 -34 5 -45 10 -38
17 6 6 11 25 11 43 l0 31 53 -8 c28 -5 64 -11 80 -15 25 -5 27 -4 26 28 0 30
-1 31 -9 11 -5 -13 -11 -23 -12 -23 -2 0 -4 39 -5 86 -1 68 1 83 11 75 7 -6
15 -8 19 -5 24 25 41 -133 16 -162 -14 -17 -21 -13 76 -51 103 -41 108 -42
112 -18 3 17 2 18 -7 5 -9 -12 -10 -12 -6 5 12 46 9 144 -4 160 -20 24 -139
75 -185 80 -5 1 -24 9 -41 18 -18 9 -51 19 -75 23 -24 4 -50 10 -58 14 -17 9
-24 42 -10 51 6 3 4 10 -4 18 -20 16 -20 -18 -1 -147 9 -57 13 -106 10 -110
-15 -14 -143 -33 -266 -39 -130 -6 -326 9 -342 25 -4 4 2 47 12 97 11 49 20
90 20 92 0 7 -84 -38 -90 -49 -4 -7 -10 -41 -13 -74 -6 -53 -3 -66 14 -88 16
-21 25 -24 51 -19 20 4 29 3 25 -4 -4 -6 -26 -14 -49 -17 -24 -4 -61 -15 -82
-24 -31 -14 -40 -23 -40 -45 -1 -23 2 -26 19 -21 15 4 13 0 -10 -20 -16 -14
-33 -25 -38 -26 -15 0 -30 47 -19 65 7 13 4 27 -10 51 -15 25 -18 48 -16 96 2
47 -3 76 -20 116 l-22 53 25 23 c23 21 24 27 16 70 -14 75 -15 76 -172 76
l-139 0 0 -315z m150 89 c0 -8 -4 -12 -10 -9 -5 3 -10 10 -10 16 0 5 5 9 10 9
6 0 10 -7 10 -16z m340 -44 c-6 -37 -8 -40 -9 -13 -1 29 8 68 14 61 1 -2 -1
-23 -5 -48z m901 -30 c12 -40 7 -63 -10 -44 -12 13 -21 84 -11 84 5 0 15 -18
21 -40z m-600 -170 c10 -7 18 1 30 28 l18 37 12 -30 c7 -16 12 -33 11 -36 -4
-19 37 6 48 29 10 23 13 24 21 10 5 -10 16 -15 24 -11 11 4 13 1 9 -11 -3 -9
-1 -16 5 -16 6 0 11 11 11 25 0 31 34 35 50 6 12 -23 12 -32 1 -49 -6 -11 -13
-11 -36 0 -23 10 -29 10 -40 -5 -12 -17 -45 -14 -45 4 0 13 -24 11 -38 -3 -14
-14 -62 -20 -62 -7 0 13 -34 11 -48 -3 -10 -10 -14 -10 -20 -1 -5 7 -25 12
-45 11 -47 -2 -55 7 -36 40 19 34 30 33 48 -4 l15 -29 15 38 16 37 11 -26 c6
-14 17 -30 25 -34z m-236 11 c-12 -11 -85 -26 -85 -17 0 6 55 24 80 25 9 1 10
-2 5 -8z m325 -108 c16 -27 30 -42 30 -35 0 18 56 15 75 -4 8 -9 26 -17 39
-18 13 0 22 -4 19 -8 -8 -15 124 -9 136 6 6 7 29 13 51 13 30 0 41 -4 45 -18
6 -18 -19 -92 -66 -199 -10 -25 -30 -89 -43 -143 -13 -53 -31 -109 -41 -123
-10 -15 -14 -35 -11 -49 5 -18 1 -24 -20 -29 -14 -4 -44 -19 -67 -33 -23 -14
-56 -29 -74 -33 -28 -7 -32 -5 -38 17 -3 13 -3 46 1 73 l6 48 -46 7 c-80 12
-93 4 -102 -63 -6 -51 -8 -54 -17 -32 -17 43 -37 84 -62 125 -13 22 -24 48
-25 58 0 9 -11 34 -24 55 -14 20 -28 51 -32 67 -4 17 -15 40 -25 53 -35 45
-42 85 -24 147 12 40 20 53 28 47 18 -15 96 2 149 31 27 14 50 21 53 16 4 -5
-1 -24 -10 -43 -9 -19 -14 -44 -10 -55 3 -11 -1 -34 -10 -51 -24 -46 -16 -98
18 -124 19 -14 30 -17 35 -10 4 6 21 14 37 17 17 3 24 4 18 1 -7 -3 -13 -10
-13 -14 0 -14 82 14 93 31 13 21 2 76 -24 118 -30 50 -34 30 -5 -25 27 -50 25
-76 -3 -50 -9 8 -36 18 -59 21 -43 5 -82 23 -82 38 0 4 6 18 14 30 8 12 17 42
21 67 4 25 10 49 13 55 4 5 5 22 3 37 -4 42 15 34 49 -19z m-233 31 c-3 -3
-12 -4 -19 -1 -8 3 -5 6 6 6 11 1 17 -2 13 -5z m514 -15 c13 -11 18 -17 10
-13 -8 4 -32 13 -55 20 -40 12 -40 13 -10 13 19 1 42 -8 55 -20z m514 11 c3
-5 2 -10 -4 -10 -5 0 -13 5 -16 10 -3 6 -2 10 4 10 5 0 13 -4 16 -10z m-1027
-46 c10 -19 9 -21 -13 -16 -26 5 -34 27 -12 35 14 5 12 7 25 -19z m507 -5 c-3
-4 -16 -9 -29 -11 -22 -4 -23 -3 -14 18 9 19 14 21 29 11 10 -6 16 -14 14 -18z
m-410 10 c9 -13 7 -15 -28 -23 -26 -6 -27 -6 -10 14 20 23 29 25 38 9z m315
-19 c0 -4 -11 -5 -25 -2 -20 3 -23 7 -14 18 9 11 15 11 25 3 8 -6 14 -15 14
-19z m516 -44 c49 -87 56 -297 13 -397 -20 -47 -25 -50 -51 -47 -22 4 -28 1
-24 -9 4 -8 1 -11 -5 -7 -6 3 -9 15 -6 25 8 31 -19 22 -44 -16 -13 -19 -27
-35 -30 -35 -11 0 -66 93 -73 124 -4 16 -3 32 2 35 5 3 16 29 25 56 l16 50
-30 37 c-26 33 -29 43 -23 75 12 62 34 106 69 138 36 33 55 41 55 24 0 -5 5
-7 10 -4 6 3 10 -1 10 -9 0 -18 -16 -21 -25 -6 -3 6 -12 10 -18 10 -13 -1 30
-40 43 -40 13 0 18 48 6 61 -6 7 5 3 24 -7 19 -11 45 -37 56 -58z m194 34 c0
-5 -2 -10 -4 -10 -3 0 -8 5 -11 10 -3 6 -1 10 4 10 6 0 11 -4 11 -10z m-105
-10 c3 -6 -1 -7 -9 -4 -18 7 -21 14 -7 14 6 0 13 -4 16 -10z m41 -22 c-10 -6
-20 -7 -24 -3 -9 8 20 25 31 18 5 -3 2 -10 -7 -15z m-1190 -69 c2 -79 16 -141
59 -254 35 -92 56 -157 51 -162 -2 -2 -18 10 -36 27 -40 37 -68 125 -81 250
-4 47 -11 116 -15 154 -6 56 -4 68 7 64 10 -3 14 -26 15 -79z m388 -108 c4 -5
-3 -7 -14 -4 -23 6 -26 13 -6 13 8 0 17 -4 20 -9z m461 -25 c13 -20 14 -30 3
-70 -7 -25 -16 -46 -20 -46 -4 0 -8 32 -8 70 0 39 2 70 5 70 2 0 12 -11 20
-24z m-1098 -109 c-14 -28 -27 -60 -31 -69 -8 -26 -26 -22 -26 5 0 22 24 75
58 127 28 43 27 -3 -1 -63z m1040 -2 c-7 -43 -32 -73 -41 -49 -3 8 -2 13 3 10
4 -3 14 13 21 34 16 49 25 52 17 5z m360 -37 c-3 -8 -6 -5 -6 6 -1 11 2 17 5
13 3 -3 4 -12 1 -19z m-1179 -251 c10 -12 10 -16 -2 -20 -32 -13 -58 138 -35
206 l14 42 5 -107 c4 -61 11 -112 18 -121z m772 206 c0 -27 -39 -85 -61 -90
-10 -3 -19 -10 -19 -16 0 -6 -3 -7 -7 -4 -3 4 -13 1 -22 -6 -8 -6 5 17 29 53
57 83 80 101 80 63z m79 -98 c10 -71 7 -91 -9 -65 -10 15 -14 148 -5 139 2 -3
9 -36 14 -74z m167 -7 c-15 -10 -28 -10 -45 1 -12 8 -12 12 -2 25 12 14 15 14
36 -2 15 -11 19 -19 11 -24z m48 -43 c4 -38 9 -94 12 -122 3 -34 1 -53 -6 -53
-5 0 -10 7 -10 15 0 17 -55 76 -64 68 -3 -4 -6 -1 -6 6 0 7 -4 9 -10 6 -5 -3
-10 -2 -10 2 0 16 -56 42 -81 37 -21 -4 -22 -3 -4 5 11 5 14 10 8 10 -7 1 -13
6 -13 12 0 6 10 9 23 7 12 -2 21 -9 19 -16 -1 -8 2 -11 7 -7 6 3 32 -8 59 -25
27 -16 52 -30 56 -30 4 0 7 21 6 48 -5 127 5 150 14 37z m-167 59 c-3 -3 -12
-4 -19 -1 -8 3 -5 6 6 6 11 1 17 -2 13 -5z m-808 -136 c1 -49 -2 -88 -7 -88
-4 0 -8 48 -8 108 -1 64 2 99 6 87 5 -11 9 -59 9 -107z m806 112 c3 -5 -1 -10
-9 -10 -9 0 -16 5 -16 10 0 6 4 10 9 10 6 0 13 -4 16 -10z m-958 -6 c-3 -3
-12 -4 -19 -1 -8 3 -5 6 6 6 11 1 17 -2 13 -5z m0 -20 c-3 -3 -12 -4 -19 -1
-8 3 -5 6 6 6 11 1 17 -2 13 -5z m960 0 c-3 -3 -12 -4 -19 -1 -8 3 -5 6 6 6
11 1 17 -2 13 -5z m-1222 -65 c25 -11 44 -23 41 -26 -8 -8 -96 27 -96 38 0 12
1 12 55 -12z m1160 -51 c6 -60 5 -68 -11 -68 -14 0 -16 6 -10 38 3 20 6 52 6
71 0 52 7 33 15 -41z m75 42 c0 -5 -7 -10 -16 -10 -8 0 -12 5 -9 10 3 6 10 10
16 10 5 0 9 -4 9 -10z m-1300 -26 c17 -15 29 -28 27 -31 -7 -6 -66 31 -72 45
-7 20 11 14 45 -14z m98 -10 c43 -18 41 -26 -5 -18 -46 8 -73 21 -73 35 0 11
21 6 78 -17z m1197 6 c-3 -5 -10 -10 -16 -10 -5 0 -9 5 -9 10 0 6 7 10 16 10
8 0 12 -4 9 -10z m15 -20 c0 -5 -10 -10 -22 -10 -19 0 -20 2 -8 10 19 13 30
13 30 0z m-1355 -30 c10 -11 15 -23 12 -26 -10 -10 -35 3 -47 25 -15 28 10 29
35 1z m139 10 c7 0 21 -7 32 -15 18 -15 16 -16 -22 -12 -23 2 -46 7 -53 11
-16 10 -2 29 16 22 8 -3 20 -6 27 -6z m66 -15 c7 -9 8 -15 2 -15 -5 0 -12 7
-16 15 -3 8 -4 15 -2 15 2 0 9 -7 16 -15z m1150 11 c0 -2 3 -11 6 -20 4 -12 0
-16 -15 -16 -14 0 -21 6 -21 20 0 11 7 20 15 20 8 0 15 -2 15 -4z m-1279 -23
c12 -15 12 -16 -4 -10 -10 4 -23 7 -28 7 -5 0 -9 5 -9 10 0 16 26 12 41 -7z
m286 -23 c-1 -11 -7 -20 -14 -20 -7 0 -13 9 -13 20 0 11 6 20 14 20 9 0 14 -9
13 -20z m-127 -152 c0 -135 -2 -157 -20 -185 -18 -31 -23 -33 -75 -33 l-55 0
0 169 c0 93 3 176 6 185 5 12 21 16 75 16 l69 0 0 -152z m60 12 l0 -140 35 0
c40 0 44 -13 20 -60 -14 -26 -21 -30 -60 -30 l-45 0 0 185 0 185 25 0 25 0 0
-140z m230 -10 c0 -109 -4 -160 -14 -185 -15 -34 -16 -35 -75 -35 l-61 0 0
169 c0 93 3 176 6 185 5 12 21 16 75 16 l69 0 0 -150z m140 105 l0 -45 -40 0
c-36 0 -40 -3 -40 -24 0 -21 5 -25 38 -28 36 -3 37 -4 37 -43 0 -39 -1 -40
-37 -43 -32 -3 -38 -7 -38 -27 0 -20 6 -23 45 -27 l45 -3 0 126 c0 89 4 130
14 144 24 33 43 11 64 -77 l20 -83 1 88 c1 86 1 87 26 87 l25 0 0 -185 0 -185
-24 0 c-32 0 -41 14 -57 90 l-14 65 -5 -75 c-5 -68 -7 -75 -27 -78 -20 -3 -23
1 -23 35 l-1 38 -20 -38 c-19 -35 -22 -37 -69 -37 l-50 0 0 169 c0 93 3 176 6
185 5 12 21 16 65 16 l59 0 0 -45z m400 0 l0 -45 -40 0 c-36 0 -40 -3 -40 -24
0 -21 5 -25 38 -28 36 -3 37 -4 37 -43 0 -39 -1 -40 -37 -43 -33 -3 -38 -7
-38 -28 0 -21 4 -24 40 -24 35 0 40 -3 40 -23 0 -45 -27 -67 -81 -67 l-49 0 0
166 c0 95 4 174 10 185 9 15 22 19 65 19 l55 0 0 -45z m73 31 c3 -8 9 -46 13
-85 3 -39 10 -73 14 -76 4 -2 10 26 14 63 11 104 14 112 47 112 l29 0 -2 -182
c-3 -175 -4 -183 -23 -183 -15 0 -21 8 -24 30 l-4 30 -6 -30 c-5 -24 -11 -30
-31 -30 -21 0 -26 6 -29 35 l-4 35 -6 -35 c-5 -27 -11 -36 -28 -38 l-23 -3 0
160 c0 100 4 170 12 186 12 27 43 34 51 11z m247 -5 c13 -25 13 -187 0 -212
-7 -12 -21 -19 -40 -19 -28 0 -29 -1 -32 -58 -3 -50 -6 -57 -25 -60 l-23 -3 0
185 0 186 55 0 c43 0 56 -4 65 -19z m78 -163 c-3 -181 -3 -183 -25 -186 l-23
-3 0 185 0 186 25 0 25 0 -2 -182z m-1111 112 c-2 -24 -19 -21 -23 3 -1 9 4
17 11 17 8 0 13 -9 12 -20z m-9 -41 c-7 -5 -8 -9 -3 -9 6 0 11 -9 11 -20 0
-11 -4 -20 -9 -20 -4 0 -5 -4 -2 -10 3 -5 1 -10 -6 -10 -7 0 -9 10 -7 25 3 14
1 28 -5 32 -6 3 -7 1 -3 -5 4 -7 2 -12 -3 -12 -6 0 -11 6 -11 13 0 20 21 36
37 30 12 -5 12 -7 1 -14z m2 -116 c0 -10 -5 -25 -10 -33 -7 -11 -10 -7 -10 18
0 17 5 32 10 32 6 0 10 -8 10 -17z m557 -13 c8 0 12 -13 11 -35 -1 -33 -3 -35
-34 -35 -18 0 -35 4 -38 9 -7 11 22 23 36 14 7 -3 8 -1 4 5 -4 7 -13 12 -21
12 -8 0 -17 5 -20 10 -10 17 6 32 29 26 11 -3 26 -6 33 -6z m452 -99 c6 -10 7
-21 4 -25 -9 -8 -33 14 -33 30 0 20 18 17 29 -5z m-439 -7 c0 -13 -7 -15 -32
-10 -52 10 -58 26 -10 26 32 0 42 -4 42 -16z m-166 -65 c-12 -20 -20 -7 -16
23 5 31 5 31 13 9 5 -12 7 -27 3 -32z"/>
<path d="M747 840 c-14 -11 -30 -20 -37 -20 -6 0 -10 -3 -8 -7 3 -5 10 -22 16
-38 18 -45 41 -56 92 -43 32 8 51 8 76 -1 18 -6 44 -9 58 -5 24 6 24 7 7 25
-13 14 -37 21 -87 26 -113 10 -121 41 -11 42 26 1 75 -8 109 -20 41 -14 64
-17 71 -10 7 7 4 12 -9 17 -10 3 -40 17 -65 30 -51 26 -85 31 -92 12 -4 -10
-7 -10 -18 0 -20 18 -73 14 -102 -8z"/>
<path d="M1516 1185 c-3 -9 -6 -32 -6 -51 0 -24 -5 -34 -15 -34 -8 0 -15 6
-15 14 0 8 -9 24 -20 37 -17 21 -21 22 -30 9 -12 -18 -8 -32 11 -39 12 -4 12
-2 0 12 -8 11 -9 17 -3 17 14 0 35 -38 27 -50 -3 -5 -19 -8 -36 -8 -17 1 -26
4 -20 7 7 4 7 18 2 36 -7 25 -10 27 -16 12 -4 -10 -5 -20 -2 -24 3 -3 0 -12
-8 -20 -22 -21 -18 -29 13 -27 23 1 27 -2 29 -27 2 -23 -2 -29 -18 -29 -12 0
-23 8 -26 20 -8 30 -25 24 -21 -7 2 -24 8 -29 36 -31 32 -3 33 -5 31 -45 -1
-23 -11 -59 -21 -79 -20 -42 -23 -83 -7 -94 13 -8 29 13 29 40 0 16 -2 17 -17
5 -15 -12 -16 -12 -10 4 4 10 7 21 7 23 0 2 6 4 14 4 21 0 27 -40 10 -73 -11
-20 -21 -28 -34 -24 -13 3 -17 0 -13 -9 3 -8 9 -14 13 -14 4 0 11 -12 14 -26
9 -35 29 -25 44 23 10 32 17 40 31 36 10 -3 24 -16 30 -29 6 -13 15 -24 21
-24 13 0 32 48 24 61 -9 16 -26 -2 -21 -22 3 -11 1 -17 -4 -13 -12 7 -11 28 3
58 9 20 14 23 25 15 7 -6 13 -18 13 -27 0 -8 3 -12 6 -9 4 4 1 20 -6 37 -13
32 -5 55 10 30 8 -13 10 -12 10 2 0 9 -6 21 -14 25 -8 4 -16 17 -19 28 -3 13
-5 8 -6 -14 -1 -44 -37 -101 -62 -101 -30 0 -59 77 -59 158 0 70 13 108 43
126 33 21 51 -3 76 -99 l8 -30 8 29 c5 17 4 31 -3 35 -20 12 -32 60 -22 87 6
14 15 22 20 19 10 -6 -25 62 -40 78 -4 5 -10 1 -14 -8z m34 -51 c0 -5 -6 -18
-12 -27 -11 -15 -13 -13 -12 15 1 18 2 38 3 43 2 12 21 -15 21 -31z m-110
-404 c-16 -31 -23 -19 -9 16 6 16 13 24 16 17 2 -7 -1 -22 -7 -33z"/>
<path d="M1560 1060 c0 -11 5 -20 10 -20 6 0 10 9 10 20 0 11 -4 20 -10 20 -5
0 -10 -9 -10 -20z"/>
<path d="M1592 960 c0 -14 2 -19 5 -12 2 6 2 18 0 25 -3 6 -5 1 -5 -13z"/>
<path d="M1586 915 c4 -8 8 -15 10 -15 2 0 4 7 4 15 0 8 -4 15 -10 15 -5 0 -7
-7 -4 -15z"/>
<path d="M1475 670 c3 -5 11 -10 16 -10 6 0 7 5 4 10 -3 6 -11 10 -16 10 -6 0
-7 -4 -4 -10z"/>
<path d="M190 244 c0 -93 1 -95 23 -92 21 3 22 8 25 96 l3 92 -26 0 -25 0 0
-96z m30 -14 c0 -5 -2 -10 -4 -10 -3 0 -8 5 -11 10 -3 6 -1 10 4 10 6 0 11 -4
11 -10z m5 -50 c-3 -5 -11 -10 -16 -10 -6 0 -7 5 -4 10 3 6 11 10 16 10 6 0 7
-4 4 -10z"/>
<path d="M480 245 c0 -95 0 -95 25 -95 25 0 25 0 25 95 0 95 0 95 -25 95 -25
0 -25 0 -25 -95z m40 -63 c0 -13 -12 -22 -22 -16 -10 6 -1 24 13 24 5 0 9 -4
9 -8z"/>
<path d="M1370 305 c0 -28 4 -35 20 -35 16 0 19 6 18 35 -1 27 -6 35 -20 35
-14 0 -18 -8 -18 -35z"/>
<path d="M323 1783 c3 -10 8 -35 12 -56 4 -25 11 -37 18 -33 103 45 206 85
220 86 9 0 17 5 17 10 0 6 -52 10 -136 10 -124 0 -135 -1 -131 -17z"/>
<path d="M606 1768 c-18 -119 -18 -120 4 -101 22 19 27 53 9 53 -8 0 -9 13 -5
40 3 22 4 40 2 40 -3 0 -7 -15 -10 -32z"/>
<path d="M637 1793 c-10 -10 -8 -63 2 -63 5 0 7 9 4 20 -3 11 0 27 7 35 12 15
0 22 -13 8z"/>
<path d="M916 1758 l6 -48 -83 0 c-106 0 -93 -17 16 -22 l81 -3 -3 44 c-2 24
-8 51 -14 60 -7 11 -8 2 -3 -31z"/>
<path d="M1061 1784 c0 -11 3 -14 6 -6 3 7 2 16 -1 19 -3 4 -6 -2 -5 -13z"/>
<path d="M1200 1784 c98 -21 216 -62 302 -105 43 -22 80 -39 83 -39 3 0 5 8 5
18 1 9 7 34 14 55 l14 37 -42 25 c-42 24 -47 25 -242 24 -196 -1 -198 -1 -134
-15z"/>
<path d="M1080 1760 c-14 -8 -22 -50 -10 -50 9 0 35 49 29 54 -3 3 -11 1 -19
-4z"/>
<path d="M833 1753 c9 -2 23 -2 30 0 6 3 -1 5 -18 5 -16 0 -22 -2 -12 -5z"/>
<path d="M704 1696 c-10 -8 -16 -17 -13 -20 3 -3 14 3 24 14 21 23 17 26 -11
6z"/>
<path d="M960 1700 c0 -4 9 -10 20 -13 11 -3 20 -2 20 3 0 4 -9 10 -20 13 -11
3 -20 2 -20 -3z"/>
<path d="M430 1680 c-12 -7 -10 -9 7 -7 12 0 19 5 17 9 -6 10 -6 10 -24 -2z"/>
<path d="M1022 1670 c0 -14 4 -38 8 -55 7 -27 8 -27 8 -5 0 14 -4 39 -8 55 -7
27 -8 27 -8 5z"/>
<path d="M1050 1684 c0 -13 29 -53 34 -45 4 5 2 12 -3 16 -6 3 -8 11 -5 19 3
7 -2 13 -11 13 -8 0 -15 -1 -15 -3z"/>
<path d="M505 1649 c-4 -6 -5 -12 -2 -15 2 -3 7 2 10 11 7 17 1 20 -8 4z"/>
<path d="M621 1651 c-7 -5 -11 -17 -9 -27 4 -17 5 -17 17 4 14 27 12 35 -8 23z"/>
<path d="M680 1620 c0 -22 3 -40 8 -40 4 0 6 18 4 40 -2 22 -6 40 -8 40 -2 0
-4 -18 -4 -40z"/>
<path d="M767 1653 c-16 -3 -26 -9 -24 -16 3 -7 11 -10 18 -7 8 3 51 5 97 5
60 -1 82 3 82 12 0 13 -104 16 -173 6z"/>
<path d="M972 1623 c-2 -32 2 -43 13 -43 8 0 15 5 15 10 0 6 -4 10 -9 10 -6 0
-12 15 -14 33 -3 28 -4 26 -5 -10z"/>
<path d="M572 1561 c-6 -37 -14 -75 -18 -84 -3 -10 -2 -17 4 -17 5 0 13 15 16
33 3 17 8 43 11 56 2 14 8 27 13 30 4 3 3 16 -3 28 -10 19 -13 14 -23 -46z"/>
<path d="M1093 1613 c-7 -3 -13 -17 -13 -31 l0 -27 15 29 c17 32 16 36 -2 29z"/>
<path d="M386 1583 c-6 -14 -5 -15 5 -6 7 7 10 15 7 18 -3 3 -9 -2 -12 -12z"/>
<path d="M408 1570 c-20 -11 -40 -25 -44 -31 -12 -19 -13 -132 -1 -154 9 -18
9 -19 -6 -6 -10 7 -17 9 -17 3 0 -28 27 -31 83 -9 31 12 57 26 57 31 0 4 -7 6
-15 3 -8 -4 -17 -1 -21 5 -5 7 -2 8 6 3 10 -6 12 -4 7 9 -4 10 -7 21 -7 24 0
4 -4 1 -9 -7 -7 -11 -10 -9 -16 9 -9 27 3 112 15 105 4 -3 11 2 14 11 12 31 6
31 -46 4z"/>
<path d="M732 1568 c3 -21 -1 -23 -46 -22 -38 0 -45 -2 -33 -11 12 -9 37 -11
79 -6 4 1 10 10 13 21 6 18 15 20 101 20 56 0 94 4 94 10 0 6 -42 10 -106 10
-103 0 -105 0 -102 -22z"/>
<path d="M1031 1563 c-9 -10 -27 -14 -52 -11 -24 2 -38 0 -36 -7 5 -12 88 -8
101 5 4 4 7 13 5 18 -2 6 -10 3 -18 -5z"/>
<path d="M1073 1522 c12 -13 14 -22 7 -25 -6 -3 -6 -5 2 -3 21 4 19 21 -4 35
-23 14 -23 13 -5 -7z"/>
<path d="M607 1516 c-17 -13 -24 -46 -9 -46 7 0 34 51 29 56 -1 1 -10 -3 -20
-10z"/>
<path d="M775 1501 c31 -5 39 -10 37 -23 -4 -24 14 -23 21 1 3 12 16 21 33 24
16 2 -7 4 -51 4 -56 0 -68 -2 -40 -6z"/>
<path d="M696 1485 c-3 -8 -1 -15 3 -15 5 0 11 7 15 15 3 8 1 15 -3 15 -5 0
-11 -7 -15 -15z"/>
<path d="M943 1493 c-18 -7 -16 -23 2 -23 8 0 15 7 15 15 0 8 -1 15 -2 14 -2
0 -9 -3 -15 -6z"/>
<path d="M626 1474 c-3 -9 -6 -16 -6 -17 0 -1 14 -3 30 -4 34 -3 36 0 14 21
-20 20 -30 20 -38 0z"/>
<path d="M972 1470 c-10 -16 -10 -20 2 -20 8 0 16 7 20 15 3 8 13 15 21 15 9
0 13 -4 10 -10 -3 -5 1 -10 10 -10 29 0 10 25 -21 28 -20 2 -33 -3 -42 -18z"/>
<path d="M1110 1480 c-13 -8 -12 -10 3 -10 9 0 17 5 17 10 0 12 -1 12 -20 0z"/>
<path d="M730 1460 c0 -22 16 -27 23 -7 4 10 7 10 18 0 20 -20 31 -15 19 7 -6
12 -21 20 -35 20 -18 0 -25 -5 -25 -20z"/>
<path d="M850 1458 c0 -17 3 -20 9 -9 5 8 18 12 30 8 14 -3 21 0 21 9 0 9 -11
14 -30 14 -24 0 -30 -4 -30 -22z"/>
<path d="M1270 1380 c8 -5 24 -10 34 -10 26 0 18 6 -19 14 -22 5 -26 4 -15 -4z"/>
<path d="M10 1150 c-8 -5 -12 -11 -10 -14 3 -2 14 2 24 10 22 15 10 19 -14 4z"/>
<path d="M413 1135 c0 -13 3 -22 8 -20 9 6 8 45 -2 45 -4 0 -6 -11 -6 -25z"/>
<path d="M1625 1150 c3 -5 8 -10 11 -10 2 0 4 5 4 10 0 6 -5 10 -11 10 -5 0
-7 -4 -4 -10z"/>
<path d="M82 1142 c-25 -3 -32 -7 -28 -18 3 -9 1 -25 -5 -36 -8 -15 -8 -19 0
-14 6 4 21 0 33 -8 35 -25 42 -19 11 8 -34 29 -27 42 12 22 29 -15 56 -12 52
7 -1 7 15 14 37 17 22 3 41 10 43 17 4 11 -66 13 -155 5z"/>
<path d="M307 1085 c-4 -8 -3 -16 1 -19 4 -3 9 4 9 15 2 23 -3 25 -10 4z"/>
<path d="M36 1047 c3 -10 9 -15 12 -12 3 3 0 11 -7 18 -10 9 -11 8 -5 -6z"/>
<path d="M294 1041 c3 -5 -4 -22 -16 -37 l-22 -29 27 24 c27 25 36 51 16 51
-5 0 -8 -4 -5 -9z"/>
<path d="M1580 305 c0 -28 4 -35 20 -35 16 0 20 7 20 35 0 28 -4 35 -20 35
-16 0 -20 -7 -20 -35z"/>
<path d="M1730 315 c0 -22 4 -25 35 -25 31 0 35 3 35 25 0 22 -4 25 -35 25
-31 0 -35 -3 -35 -25z"/>
<path d="M1732 178 c2 -18 11 -24 36 -26 29 -3 32 -1 32 22 0 23 -4 26 -36 26
-31 0 -35 -3 -32 -22z"/>
</g>
</svg>
