<!DOCTYPE svg PUBLIC "-//W3C//DTD SVG 1.1//EN" "http://www.w3.org/Graphics/SVG/1.1/DTD/svg11.dtd">
<!-- Uploaded to: SVG Repo, www.svgrepo.com, Transformed by: SVG Repo Mixer Tools -->
<svg version="1.1" id="Icons" xmlns="http://www.w3.org/2000/svg" xmlns:xlink="http://www.w3.org/1999/xlink" viewBox="0 0 32 32" xml:space="preserve" width="800px" height="800px" fill="#211c1c" stroke="#211c1c">
<g id="SVGRepo_bgCarrier" stroke-width="0"/>
<g id="SVGRepo_tracerCarrier" stroke-linecap="round" stroke-linejoin="round"/>
<g id="SVGRepo_iconCarrier"> <style type="text/css"> .st0{fill:none;stroke:#000000;stroke-width:2;stroke-linecap:round;stroke-linejoin:round;stroke-miterlimit:10;} </style> <g> <path d="M23,28L23,28c-1.1,0-2.1-0.7-2.5-1.8c0-0.1,0-0.2-0.1-0.2h-8.9c0,0.1,0,0.2-0.1,0.2C11.1,27.3,10.1,28,9,28h0 c-0.6,0-1,0.4-1,1s0.4,1,1,1h14c0.6,0,1-0.4,1-1S23.6,28,23,28z"/> </g> <g> <path d="M15.1,7.8c-0.4-0.1-0.7-0.3-1-0.4C13.8,7.2,13.5,7,13.3,7H11v5h0.3c0.4-1.3,1.6-2.3,3-2.3H17c0.4,0,0.7,0.2,0.9,0.6 c0.2,0.4,0.1,0.8-0.1,1.1l-1.5,1.8c-1.5,1.8-2.6,3.7-3.3,5.8h4.7c0.2-2.9,1-5.7,2.5-8.2l1.6-2.6l-0.7-0.9 C19.2,8.1,17.1,8.3,15.1,7.8z"/> <path d="M27,3H5C3.3,3,2,4.3,2,6v15c0,1.7,1.3,3,3,3h6.9h8.1H27c1.7,0,3-1.3,3-3V6C30,4.3,28.7,3,27,3z M23.9,8.6l-1.9,3.2 c-1.5,2.5-2.3,5.3-2.3,8.2c0,0.6-0.4,1-1,1h-7c-0.3,0-0.6-0.1-0.8-0.4c-0.2-0.2-0.3-0.6-0.2-0.9c0.8-2.9,2.1-5.5,4.1-7.9l0.2-0.2 h-0.6c-0.6,0-1.2,0.7-1.2,1.3c0,0.6-0.4,1-1,1H10c-0.6,0-1-0.4-1-1V6c0-0.6,0.4-1,1-1h3.3c0.7,0,1.2,0.3,1.7,0.5 c0.2,0.1,0.5,0.2,0.6,0.3c1.6,0.4,3.2,0.3,4.7-0.4l0.7-0.3c0.4-0.2,0.9-0.1,1.2,0.3l1.6,2.1C24,7.8,24.1,8.2,23.9,8.6z"/> </g> </g>
</svg>