<?xml version="1.0" encoding="utf-8"?>
<!-- Generator: Adobe Illustrator 24.1.1, SVG Export Plug-In . SVG Version: 6.00 Build 0)  -->
<svg version="1.1" id="Layer_1" xmlns="http://www.w3.org/2000/svg" xmlns:xlink="http://www.w3.org/1999/xlink" x="0px" y="0px"
	 viewBox="0 0 818 148" style="enable-background:new 0 0 818 148;" xml:space="preserve">
<style type="text/css">
	.st0{fill:#BD9A61;}
	.st1{fill:#BA1218;}
</style>
<g>
	<g>
		<path class="st0" d="M188.4,72.9c-6.2-4.6-10.2-7.7-12-9.2c-1-1-2.2-2.3-3.5-3.8c-1.3-1.6-2-3.7-2-6.3c0-3.4,1-6.1,3-8.1
			c2-2,4.7-3,8.2-3c7.4,0,11.8,4.4,13.1,13.3h2.7V42.5c0-0.6-0.1-1-0.4-1.2c-1.4-1.6-6.2-2.4-14.4-2.4c-6.1,0-11.2,1.5-15.4,4.3
			c-4.8,3.3-7.2,7.9-7.2,13.7c0,3.5,0.9,6.4,2.8,8.9c1.8,2.4,5.2,5.4,10.1,8.9c7.7,5.4,12.8,9.5,15.2,12.5c2.5,2.9,3.7,6.2,3.7,9.9
			c0,3.9-1.3,7.1-3.9,9.7c-2.6,2.6-5.9,3.8-10,3.8c-5.7,0-10.1-2.3-13.3-6.9c-1.3-1.9-2.2-5-3-9.5h-2.6v14.6c0,1.1,0.4,1.8,1.2,2.2
			c1.4,0.7,3.9,1.4,7.4,2c3.6,0.6,6.8,1,9.6,1c7.6,0,13.7-1.8,18.4-5.6c4.7-3.7,7-8.6,7-14.7c0-3.8-1.1-7.2-3.1-10.1
			C197.9,80.6,194,77.2,188.4,72.9z"/>
		<path class="st0" d="M242.4,59.6c-7.3,0-13.3,2.8-17.8,8.5v-8.5c-4.5,2.5-10.4,4-17.6,4.3v2.6h2.4c2.2,0,3.7,0.3,4.6,0.9
			c0.8,0.6,1.3,2,1.3,4.1v53.9c0,4.5-0.4,7.2-1.2,8.1c-0.8,0.9-3.1,1.7-7.2,2.2v2.7h28.3v-2.7c-5.2-0.5-8.3-1.2-9.2-2.1
			c-0.9-0.9-1.4-3.7-1.4-8.3v-14c4,1.6,7.9,2.4,11.7,2.4c7.9,0,14.4-2.8,19.6-8.4c5.2-5.6,7.8-12.8,7.8-21.4
			c0-7.5-1.9-13.4-5.8-17.8C254,61.8,248.9,59.6,242.4,59.6z M248.9,104.1c-3,4.2-7.2,6.3-12.6,6.3c-4.1,0-8-1.6-11.7-4.9V87.3
			c0-5.5,0.3-9.6,0.8-12.1c1.6-7.1,5.7-10.7,12.3-10.7c4.8,0,8.6,1.9,11.4,5.7c2.8,3.8,4.2,9.1,4.2,15.8
			C253.4,93.9,251.9,99.9,248.9,104.1z"/>
		<path class="st0" d="M311.1,106.9c-1.4,0-2.3-0.6-2.9-1.7c-0.5-1.2-0.8-3.2-0.8-6.1v-23c0-5.8-1.4-10-4.1-12.6
			c-2.8-2.6-7.2-3.9-13.3-3.9c-4.9,0-9.3,0.9-13.2,2.7c-1.5,0.6-2.4,1.6-2.7,3l-1.6,5.8c-0.1,0.5,0.1,0.8,0.8,1l3.2,0.8
			c0.3,0.1,0.6,0.1,0.8,0.1c0.5,0,1.3-0.8,2.2-2.5c2.7-5,5.9-7.6,9.7-7.6c5.8,0,8.8,5,8.9,15.1l-11.3,4.4c-4.6,1.7-7.9,3.2-10,4.4
			c-5.2,3.1-7.9,7.4-7.9,12.9c0,4.2,1.2,7.5,3.7,10.1c2.5,2.6,5.7,3.9,9.7,3.9c2.2,0,4.7-1,7.5-2.9l8-5.3c0.2,2.9,1,5.6,2.5,8.2
			l14.7-4.7l-0.7-2.9C313.1,106.7,312,106.9,311.1,106.9z M298.2,90.1c0,11.5-3.8,17.2-11.3,17.2c-2.6,0-4.6-0.8-6.2-2.4
			c-1.5-1.6-2.3-3.8-2.3-6.3c0-5.7,3.5-10,10.6-13c2.3-1,5.4-2.1,9.2-3.5V90.1z"/>
		<path class="st0" d="M371.2,106.9c-2.5,0-3.7-2.6-3.7-7.8V36.2c-5.6,2.1-11.5,3.1-17.6,3.1v2.8h2.8c2,0,3.4,0.3,4.2,0.9
			c0.8,0.6,1.2,2.3,1.2,5v13.2c-3.5-1.1-7.3-1.7-11.3-1.7c-8.3,0-15,2.5-20.2,7.6c-5.2,5.1-7.7,11.7-7.7,19.8
			c0,7.6,2.2,13.9,6.7,19.1c4.5,5.1,9.9,7.7,16.4,7.7c2.5,0,5.5-1.1,9.1-3.2l6.9-4.1v0.7c0.2,2.6,0.9,4.8,2.3,6.6l14.9-4.7l-0.7-2.9
			C373.1,106.7,372,106.9,371.2,106.9z M358.2,94.8c0,4.1-0.6,6.9-1.8,8.2c-1.2,1.3-2.8,2.5-4.7,3.5c-2.1,1-4.1,1.6-6,1.6
			c-5.3,0-9.5-2.8-12.5-8.4c-2.5-4.6-3.8-9.8-3.8-15.6c0-5.6,1.3-10.4,3.9-14.4c3-4.5,7.2-6.7,12.5-6.7c5.4,0,9.5,2.1,12.4,6.3V94.8
			z"/>
		<path class="st0" d="M421.3,72.8c-2.7-8.9-8.8-13.2-18.2-13.2c-7.1,0-12.8,2.4-17.1,7.2c-4.6,5.2-6.9,11.5-6.9,19
			c0,7.7,2.3,14.5,7,20.2c4.4,5.3,11.1,7.9,20.2,7.9h2.7l13.5-6.4l-1.6-3.1c-4.7,2.4-8.7,3.5-12,3.5c-3.7,0-6.9-0.8-9.7-2.4
			c-6.6-3.7-10-10.9-10.1-21.5h33.4C422.5,79.3,422.1,75.6,421.3,72.8z M406.9,80.2h-17.8c0.3-3.1,0.7-5.5,1.1-7.1
			c2-6.7,6-10.1,12.1-10.1c3.2,0,5.9,1.1,8,3.2c2.1,2.1,3.2,4.8,3.2,8C413.5,78.2,411.3,80.2,406.9,80.2z"/>
		<path class="st0" d="M479.1,60.9l-1.2-1.3c-4.4,1-9.4,1.5-14.8,1.5c-0.9,0-1.8,0-2.7-0.1c-2.8-1-5.9-1.4-9.1-1.4
			c-6.1,0-11.2,1.6-15,4.8c-3.9,3.2-5.8,7.4-5.8,12.7c0,7.5,3.9,13,11.8,16.5l-9.9,8.2c0,0.1,0,0.4,0,0.8c-0.1,0.4-0.1,0.7-0.1,0.9
			c0,3.1,2.2,5.2,6.7,6.2l-10.9,5.9c-0.8,0.5-1.3,1.7-1.3,3.7c0,4.2,1.1,7.8,3.3,10.7c1.9,2.5,4.8,4.6,8.5,6.2
			c3.8,1.6,7.8,2.3,12.2,2.3c6.7,0,12.2-1.6,16.5-4.7c5.5-4,8.2-8.9,8.2-14.7c0-5.8-2.7-9.9-8.2-12.4c-2.5-1.1-6.3-2-11.5-2.8
			c-5.4-0.8-9.1-1.5-11.1-2.3c-1.4-0.5-2.1-1.4-2.1-2.5c0-1.2,0.9-2.6,2.9-4.1c1.9,0,3.3,0,4.1,0c5.8,0,10.6-1.7,14.5-5.1
			c3.9-3.4,5.8-7.6,5.8-12.6c0-4.7-1.5-8.7-4.5-12.1h10.7L479.1,60.9z M443.7,110.5l10.2,1.8c2.4,0.4,4.5,0.9,6.3,1.4
			c4.8,1.5,7.3,4.5,7.3,9.2c0,3.5-1.5,6.5-4.4,8.8c-3,2.3-6.8,3.4-11.4,3.4c-4.7,0-8.6-1.2-11.7-3.7c-3.1-2.5-4.6-5.6-4.6-9.4
			c0-2.4,0.6-4.3,1.8-5.9C438.2,114.5,440.4,112.6,443.7,110.5z M451.6,92.1c-3.2,0-5.8-1.6-7.8-4.7c-2-3.1-3.1-7.1-3.1-11.9
			c0-4.2,0.9-7.4,2.7-9.7c1.8-2.4,4.3-3.5,7.5-3.5c3,0,5.3,1.4,7,4.2c1.7,2.8,2.6,6.8,2.6,11.8C460.4,87.5,457.4,92.1,451.6,92.1z"
			/>
		<path class="st0" d="M521.2,106.9c-1.4,0-2.3-0.6-2.9-1.7c-0.5-1.2-0.8-3.2-0.8-6.1v-23c0-5.8-1.4-10-4.1-12.6
			c-2.8-2.6-7.2-3.9-13.3-3.9c-4.9,0-9.3,0.9-13.3,2.7c-1.4,0.6-2.3,1.6-2.7,3l-1.5,5.8c-0.1,0.5,0.1,0.8,0.8,1l3.2,0.8
			c0.3,0.1,0.5,0.1,0.8,0.1c0.6,0,1.3-0.8,2.2-2.5c2.7-5,5.9-7.6,9.6-7.6c5.9,0,8.8,5,8.9,15.1l-11.3,4.4c-4.6,1.7-7.9,3.2-10,4.4
			c-5.2,3.1-7.9,7.4-7.9,12.9c0,4.2,1.2,7.5,3.7,10.1c2.5,2.6,5.7,3.9,9.7,3.9c2.2,0,4.8-1,7.6-2.9l8-5.3c0.2,2.9,1,5.6,2.5,8.2
			l14.7-4.7l-0.6-2.9C523.2,106.7,522,106.9,521.2,106.9z M508.2,90.1c0,11.5-3.8,17.2-11.3,17.2c-2.5,0-4.6-0.8-6.2-2.4
			c-1.5-1.6-2.3-3.8-2.3-6.3c0-5.7,3.5-10,10.6-13c2.4-1,5.4-2.1,9.2-3.5V90.1z"/>
		<path class="st0" d="M611.7,99.7V78c0-3.7-0.2-6.4-0.6-8.4c-1.5-6.7-6.2-10-14.1-10c-7,0-13.3,3-18.7,9.1
			c-1.5-3.4-3.3-5.7-5.2-7.1c-2-1.4-4.7-2-8.3-2c-7.6,0-13.9,3-18.9,9.1v-9.1c-4.6,2.6-10.5,4.1-17.6,4.4v2.6h2.4
			c2.3,0,3.8,0.3,4.7,1c0.8,0.6,1.2,2,1.2,4.1v28c0,4.6-0.4,7.4-1.1,8.3c-0.7,0.9-3.1,1.6-7.2,2v2.7h26v-2.7c-4.1-0.4-6.6-1.1-7.3-2
			c-0.7-0.9-1.1-3.6-1.1-8.3V87.6c0-9.1,1.3-15.2,3.8-18.1c2.3-2.8,5.5-4.2,9.8-4.2c3.8,0,6.4,1.2,7.9,3.4c1.4,2.3,2.1,6.3,2.1,12
			v18.9c0,4.6-0.3,7.4-1.1,8.3c-0.7,0.9-3.1,1.6-7.2,2v2.7h26v-2.7c-4.1-0.4-6.6-1.1-7.3-2c-0.7-0.9-1.1-3.6-1.1-8.3V87.6
			c0-4.5,0.1-7.6,0.3-9.3c0.5-3.6,1.6-6.5,3.2-8.6c2.3-2.9,5.6-4.4,9.9-4.4c3.7,0,6.4,1.2,7.9,3.5c1.5,2.3,2.3,6.3,2.3,12v18.9
			c0,4.6-0.4,7.4-1.1,8.3c-0.7,0.9-3.1,1.6-7.2,2v2.7H620v-2.7c-4.1-0.4-6.6-1-7.3-1.9C612.1,107.1,611.7,104.4,611.7,99.7z"/>
		<path class="st0" d="M635.2,52.7c1.7,0,3.2-0.6,4.3-1.7c1.2-1.1,1.8-2.6,1.8-4.3c0-1.7-0.6-3.1-1.8-4.3c-1.2-1.2-2.6-1.8-4.2-1.8
			c-1.7,0-3.1,0.6-4.3,1.8c-1.2,1.2-1.8,2.6-1.8,4.1c0,1.7,0.6,3.2,1.8,4.4C632.1,52.2,633.5,52.7,635.2,52.7z"/>
		<path class="st0" d="M640.8,99.1V59.1c-4.6,2.6-10.5,4.1-17.6,4.4v2.6h2.4c2.3,0,3.8,0.3,4.7,0.9c0.8,0.6,1.2,2,1.2,4.1v28
			c0,4.6-0.4,7.4-1.1,8.3c-0.7,0.9-3.1,1.6-7.2,2v2.7h25.9v-2.7c-4.1-0.4-6.6-1.1-7.2-2.1C641.1,106.4,640.8,103.6,640.8,99.1z"/>
		<path class="st0" d="M706.4,99.1V77.3c0-4.5-0.3-7.6-0.9-9.4c-2.1-5.9-6.9-8.8-14.4-8.8c-8.2,0-15.1,3-20.7,9v-9
			c-4.5,2.5-10.4,4-17.6,4.3V66h2.4c2.2,0,3.7,0.3,4.6,0.9c0.9,0.6,1.3,2,1.3,4.1v28.1c0,4.4-0.4,7.1-1.1,8.1
			c-0.8,0.9-3.1,1.7-7.1,2.2v2.7h26v-2.7c-4.1-0.6-6.6-1.3-7.3-2.2c-0.7-0.9-1.1-3.6-1.1-8.1V86.4c0-4.6,0.3-8.2,0.8-10.7
			c1.6-7.4,6.4-11.1,14.2-11.1c4.4,0,7.4,1.2,9.1,3.4c1.7,2.3,2.6,6.3,2.6,11.9v19.2c0,4.4-0.3,7.1-0.8,7.9c-0.8,1.2-3.2,2-7.5,2.4
			v2.7h25.9v-2.7c-4.2-0.4-6.7-1.1-7.4-2.2C706.7,106.5,706.4,103.8,706.4,99.1z"/>
		<path class="st0" d="M770.5,60.4l-1.2-1.3c-4.4,1-9.3,1.5-14.8,1.5c-0.9,0-1.9,0-2.7-0.1c-2.9-1-5.9-1.4-9.1-1.4
			c-6.1,0-11.1,1.6-15,4.8c-3.9,3.2-5.8,7.4-5.8,12.7c0,7.5,3.9,13,11.8,16.5l-9.9,8.2c0,0.1,0,0.4,0,0.8c-0.1,0.4-0.1,0.7-0.1,0.9
			c0,3.1,2.3,5.2,6.7,6.2l-10.9,5.9c-0.8,0.5-1.2,1.7-1.2,3.7c0,4.2,1.1,7.8,3.3,10.7c1.9,2.5,4.8,4.6,8.5,6.2
			c3.8,1.6,7.8,2.3,12.2,2.3c6.7,0,12.2-1.6,16.5-4.7c5.4-4,8.2-8.9,8.2-14.7c0-5.8-2.7-9.9-8.2-12.4c-2.5-1.1-6.3-2-11.5-2.8
			c-5.4-0.8-9.1-1.5-11.1-2.3c-1.4-0.5-2.1-1.4-2.1-2.5c0-1.2,1-2.6,2.9-4.1c1.9,0,3.3,0,4,0c5.8,0,10.7-1.7,14.5-5.1
			c3.9-3.4,5.8-7.6,5.8-12.6c0-4.7-1.5-8.7-4.5-12.1h10.7L770.5,60.4z M735.1,110l10.2,1.8c2.4,0.4,4.5,0.9,6.3,1.4
			c4.8,1.5,7.3,4.5,7.3,9.2c0,3.5-1.5,6.5-4.5,8.8c-3,2.3-6.8,3.4-11.4,3.4c-4.7,0-8.6-1.2-11.6-3.7c-3.1-2.5-4.6-5.6-4.6-9.4
			c0-2.4,0.6-4.3,1.8-5.9C729.6,114,731.8,112.1,735.1,110z M743,91.6c-3.2,0-5.8-1.6-7.8-4.7c-2-3.1-3.1-7.1-3.1-11.9
			c0-4.2,0.9-7.4,2.7-9.7c1.8-2.4,4.3-3.5,7.4-3.5c3,0,5.3,1.4,7,4.2c1.7,2.8,2.5,6.8,2.5,11.8C751.7,87,748.8,91.6,743,91.6z"/>
	</g>
	<g>
		<path class="st1" d="M76.3,106.2l0.2-1.8l1.8,0.5c0.2,0,18.6,4.9,27.8-3.3c8.9-7.9,12.1-26.4,0.7-45C96,38.8,69.9,20.4,64.8,16.9
			c-5.1,3.5-31.2,21.9-42,39.7c-11.4,18.6-8.1,37.1,0.7,45c9.2,8.2,27.6,3.3,27.8,3.3l1.8-0.5l0.2,1.8c0,0.4,0.9,10.9-6.8,19.4
			c-6.4,7-16.6,10.5-30.2,10.5v6.3c15.5,0,27.3-4.2,34.9-12.6c9.5-10.4,8.6-22.8,8.5-24.2l-0.9-9.2l-8.9,2.4c-4,1-16.5,3-22-1.9
			c-7-6.2-9.2-21.4,0.4-37.1c8.6-14.1,28-29,36.7-35.3c8.7,6.2,28,21.1,36.7,35.3c9.6,15.7,7.4,30.9,0.4,37.1c-5.5,4.9-18,3-22,1.9
			l-9-2.4l-0.8,9.3c-0.1,1.4-1,13.8,8.5,24.2c7.6,8.3,19.4,12.6,34.9,12.6v-6.3c-13.7,0-23.8-3.6-30.2-10.5
			C75.4,117.1,76.3,106.7,76.3,106.2z"/>
		<path class="st1" d="M112.3,108.6c12-10.7,16.7-33.7,2.5-56.9C101.8,30.3,70.5,9.3,69.1,8.4l-4.3-2.9l-4.3,2.9
			c-1.3,0.9-32.7,21.8-45.7,43.2c-14.2,23.2-9.5,46.2,2.5,56.9c7.1,6.4,17,7.5,24.7,7.1c-0.6,1.3-1.5,2.5-2.6,3.7
			c-4.5,4.9-12.3,7.3-23.1,7.3v6.3c12.7,0,22.1-3.2,27.9-9.5c5-5.5,6-12.1,6.1-15.2c-5.3,1.1-20.1,3.3-28.7-4.5
			c-10.1-9-13.7-28.7-1.3-49c12.3-20.2,42.6-40.4,43.8-41.2l0.9-0.6l0.9,0.6c1.3,0.9,31.5,21,43.8,41.2c12.4,20.3,8.7,40-1.3,49
			c-8.6,7.7-23.4,5.6-28.7,4.5c0.1,3.1,1.1,9.7,6.1,15.2c5.8,6.3,15.1,9.5,27.9,9.5v-6.3c-10.8,0-18.6-2.5-23.1-7.3
			c-1.1-1.2-2-2.5-2.6-3.7C95.3,116.1,105.2,115,112.3,108.6z"/>
	</g>
	<g>
		<path class="st0" d="M785.5,64h-4.9v-1.9h11.9V64h-4.9v13.2h-2.1V64z"/>
		<path class="st0" d="M796,62.1h3.1l4.9,11.5h0.1l4.8-11.5h3.1v15.1h-2.1V64.8h0l-5.2,12.4h-1.4l-5.2-12.4h0v12.4H796V62.1z"/>
	</g>
</g>
</svg>
