<?xml version="1.0" encoding="UTF-8"?>
<svg width="223px" height="41px" viewBox="0 0 223 41" version="1.1" xmlns="http://www.w3.org/2000/svg" xmlns:xlink="http://www.w3.org/1999/xlink">
    <title>Group</title>
    <defs>
        <linearGradient x1="99.6469484%" y1="50.1445599%" x2="-0.13956409%" y2="50.1445599%" id="linearGradient-1">
            <stop stop-color="#EF4136" offset="13%"></stop>
            <stop stop-color="#EF4536" offset="29%"></stop>
            <stop stop-color="#F15238" offset="46%"></stop>
            <stop stop-color="#F36739" offset="63%"></stop>
            <stop stop-color="#F6843C" offset="80%"></stop>
            <stop stop-color="#FAAA3F" offset="97%"></stop>
            <stop stop-color="#FBB040" offset="100%"></stop>
        </linearGradient>
    </defs>
    <g id="Symbols" stroke="none" stroke-width="1" fill="none" fill-rule="evenodd">
        <g id="Group" transform="translate(-0.000000, 0.000000)">
            <path d="M72.1138439,9.41490147 C71.4138439,14.6149015 69.1138439,30.9149015 68.1138439,39.2149015 L78.2138439,39.2149015 L80.7138439,0.814901471 L66.4138439,0.814901471 L53.0138439,39.2149015 L63.3138439,39.2149015 L72.1138439,9.41490147 Z" id="Path" fill="#EF4136" fill-rule="nonzero"></path>
            <path d="M106.913844,12.4149015 L97.6138439,12.4149015 L98.2138439,9.61490147 C98.5138439,8.81490147 98.5138439,7.91490147 98.4138439,7.01490147 C98.2138439,6.61490147 97.8138439,6.41490147 97.3138439,6.51490147 C96.7138439,6.51490147 96.1138439,6.81490147 95.8138439,7.21490147 C95.3138439,7.91490147 95.0138439,8.61490147 94.9138439,9.41490147 C94.6138439,10.3149015 94.6138439,11.3149015 94.8138439,12.3149015 C95.0138439,12.9149015 95.8138439,13.7149015 97.1138439,14.7149015 C101.013844,17.3149015 103.313844,19.5149015 104.113844,21.2149015 C104.913844,22.9149015 104.913844,25.6149015 104.113844,29.4149015 C103.713844,31.5149015 103.013844,33.6149015 101.813844,35.5149015 C100.713844,37.0149015 99.1138439,38.1149015 97.4138439,38.7149015 C95.3138439,39.6149015 93.0138439,40.1149015 90.7138439,40.1149015 C88.4138439,40.2149015 86.2138439,39.7149015 84.2138439,38.6149015 C82.7138439,37.8149015 81.6138439,36.4149015 81.3138439,34.7149015 C81.1138439,32.5149015 81.3138439,30.2149015 81.9138439,28.1149015 L82.4138439,25.6149015 L91.7138439,25.6149015 L90.7138439,30.3149015 C90.4138439,31.2149015 90.3138439,32.2149015 90.5138439,33.1149015 C90.7138439,33.5149015 91.1138439,33.7149015 91.7138439,33.7149015 C92.3138439,33.7149015 93.0138439,33.4149015 93.4138439,32.9149015 C93.9138439,32.2149015 94.2138439,31.4149015 94.4138439,30.6149015 C94.9138439,28.3149015 94.9138439,26.9149015 94.4138439,26.2149015 C93.2138439,24.9149015 91.9138439,23.7149015 90.5138439,22.7149015 C89.0138439,21.6149015 87.6138439,20.4149015 86.3138439,19.1149015 C85.6138439,18.2149015 85.1138439,17.1149015 84.9138439,16.0149015 C84.7138439,14.3149015 84.8138439,12.6149015 85.2138439,11.0149015 C85.6138439,8.71490147 86.4138439,6.51490147 87.7138439,4.51490147 C88.8138439,3.11490147 90.3138439,2.01490147 92.0138439,1.31490147 C94.0138439,0.514901471 96.2138439,0.114901471 98.3138439,0.114901471 C100.513844,0.0149014707 102.713844,0.414901471 104.713844,1.41490147 C106.113844,2.01490147 107.213844,3.11490147 107.713844,4.61490147 C108.013844,5.91490147 107.913844,8.01490147 107.213844,11.1149015 L106.913844,12.4149015 Z" id="Path" fill="#EF4136" fill-rule="nonzero"></path>
            <polygon id="Path" fill="#EF4136" fill-rule="nonzero" points="133.413844 0.814901471 131.813844 8.51490147 125.913844 8.51490147 119.313844 39.2149015 109.313844 39.2149015 115.913844 8.51490147 109.913844 8.51490147 111.613844 0.814901471"></polygon>
            <path d="M155.213844,12.4149015 L145.913844,12.4149015 L146.513844,9.61490147 C146.813844,8.81490147 146.813844,7.91490147 146.713844,7.01490147 C146.513844,6.61490147 146.113844,6.41490147 145.613844,6.51490147 C145.013844,6.51490147 144.413844,6.81490147 144.113844,7.21490147 C143.613844,7.91490147 143.313844,8.61490147 143.213844,9.41490147 C142.913844,10.3149015 142.913844,11.3149015 143.113844,12.3149015 C143.313844,12.9149015 144.113844,13.7149015 145.413844,14.7149015 C149.313844,17.3149015 151.613844,19.5149015 152.413844,21.2149015 C153.213844,22.9149015 153.213844,25.6149015 152.413844,29.4149015 C152.013844,31.5149015 151.313844,33.6149015 150.113844,35.5149015 C149.013844,37.0149015 147.413844,38.1149015 145.713844,38.7149015 C143.613844,39.6149015 141.313844,40.1149015 139.013844,40.1149015 C136.713844,40.2149015 134.513844,39.7149015 132.513844,38.6149015 C131.013844,37.8149015 129.913844,36.4149015 129.613844,34.7149015 C129.413844,32.5149015 129.613844,30.2149015 130.213844,28.0149015 L130.713844,25.5149015 L140.013844,25.5149015 L139.013844,30.2149015 C138.713844,31.1149015 138.613844,32.1149015 138.813844,33.0149015 C139.013844,33.4149015 139.413844,33.6149015 140.013844,33.6149015 C140.613844,33.6149015 141.313844,33.3149015 141.613844,32.8149015 C142.113844,32.1149015 142.513844,31.3149015 142.613844,30.5149015 C143.113844,28.2149015 143.113844,26.8149015 142.613844,26.1149015 C141.413844,24.8149015 140.113844,23.6149015 138.713844,22.6149015 C137.213844,21.5149015 135.813844,20.3149015 134.513844,19.0149015 C133.813844,18.1149015 133.313844,17.0149015 133.213844,15.9149015 C133.013844,14.2149015 133.113844,12.5149015 133.513844,10.9149015 C133.913844,8.61490147 134.713844,6.41490147 136.013844,4.41490147 C137.113844,3.01490147 138.613844,1.91490147 140.313844,1.21490147 C142.313844,0.414901471 144.513844,0.0149014707 146.613844,0.0149014707 C148.813844,-0.0850985293 151.013844,0.314901471 153.013844,1.31490147 C154.413844,1.91490147 155.513844,3.01490147 155.913844,4.51490147 C156.213844,5.81490147 156.113844,7.91490147 155.413844,11.0149015 L155.213844,12.4149015 Z" id="Path" fill="#FFFFFF" fill-rule="nonzero"></path>
            <path d="M161.613844,0.814901471 L171.713844,0.814901471 C173.813844,0.714901471 175.813844,0.914901471 177.813844,1.41490147 C178.913844,1.71490147 180.013844,2.31490147 180.713844,3.31490147 C181.313844,4.21490147 181.613844,5.21490147 181.613844,6.21490147 C181.513844,8.01490147 181.313844,9.81490147 180.813844,11.5149015 L180.113844,14.8149015 C179.813844,16.7149015 179.113844,18.5149015 178.213844,20.2149015 C177.413844,21.4149015 176.213844,22.3149015 174.913844,22.8149015 C173.113844,23.4149015 171.313844,23.8149015 169.413844,23.7149015 L166.713844,23.7149015 L163.413844,39.2149015 L153.413844,39.2149015 L161.613844,0.814901471 Z M170.213844,7.41490147 L168.113844,17.2149015 L168.813844,17.2149015 C169.613844,17.3149015 170.313844,17.0149015 170.913844,16.5149015 C171.513844,15.7149015 171.913844,14.7149015 172.013844,13.7149015 L172.713844,10.6149015 C173.013844,9.31490147 173.013844,8.41490147 172.613844,8.01490147 C172.313844,7.61490147 171.513844,7.41490147 170.213844,7.41490147 L170.213844,7.41490147 Z" id="Shape" fill="#FFFFFF" fill-rule="nonzero"></path>
            <polygon id="Path" fill="#FFFFFF" fill-rule="nonzero" points="196.013844 0.814901471 187.813844 39.2149015 177.813844 39.2149015 186.013844 0.814901471"></polygon>
            <polygon id="Path" fill="#FFFFFF" fill-rule="nonzero" points="222.313844 0.814901471 214.113844 39.2149015 205.313844 39.2149015 203.913844 21.7149015 200.113844 39.2149015 191.713844 39.2149015 200.013844 0.814901471 208.313844 0.814901471 210.213844 18.1149015 213.913844 0.814901471"></polygon>
            <path d="M50.5138439,8.51490147 L48.9138439,15.8149015 L58.1138439,15.8149015 L56.5138439,23.1149015 L47.3138439,23.1149015 L47.0138439,24.3149015 L47.0138439,24.5149015 L47.0138439,24.5149015 L43.9138439,39.2149015 L24.6138439,39.2149015 C24.0138439,39.3149015 23.4138439,39.0149015 23.1138439,38.4149015 C22.8138439,37.8149015 22.8138439,37.2149015 23.1138439,36.6149015 C23.4138439,36.1149015 24.0138439,35.8149015 24.6138439,35.8149015 C26.3138439,35.8149015 28.1138439,35.8149015 29.8138439,35.8149015 C30.8138439,35.9149015 31.7138439,35.1149015 31.7138439,34.1149015 C31.8138439,33.1149015 31.0138439,32.2149015 30.0138439,32.2149015 C29.9138439,32.2149015 29.8138439,32.2149015 29.7138439,32.2149015 C27.6138439,32.2149015 25.4138439,32.2149015 23.3138439,32.2149015 L17.8138439,32.2149015 C16.5138439,32.2149015 15.9138439,31.7149015 15.9138439,30.6149015 C15.9138439,29.5149015 16.5138439,28.9149015 17.8138439,28.9149015 L35.3138439,28.9149015 C36.3138439,29.0149015 37.2138439,28.3149015 37.3138439,27.3149015 C37.4138439,26.3149015 36.7138439,25.4149015 35.7138439,25.3149015 C35.6138439,25.3149015 35.4138439,25.3149015 35.3138439,25.3149015 C27.9138439,25.3149015 20.5138439,25.3149015 13.2138439,25.3149015 C9.41384388,25.3149015 5.61384388,25.3149015 1.81384388,25.3149015 C1.11384388,25.3149015 0.513843876,25.0149015 0.213843876,24.4149015 C-0.0861561237,23.9149015 -0.0861561237,23.2149015 0.313843876,22.7149015 C0.613843876,22.2149015 1.21384388,22.0149015 1.81384388,22.0149015 L15.6138439,22.0149015 C21.4138439,22.0149015 27.2138439,22.0149015 32.9138439,22.0149015 C33.9138439,22.1149015 34.8138439,21.4149015 34.9138439,20.4149015 C34.9138439,20.3149015 34.9138439,20.2149015 34.9138439,20.1149015 C34.9138439,19.0149015 34.1138439,18.3149015 32.8138439,18.3149015 C32.0138439,18.3149015 31.3138439,18.3149015 30.5138439,18.3149015 C29.4138439,18.2149015 28.8138439,17.7149015 28.8138439,16.8149015 C28.6138439,16.0149015 29.1138439,15.2149015 30.0138439,15.0149015 C30.2138439,15.0149015 30.3138439,15.0149015 30.5138439,15.0149015 C31.8138439,14.9149015 33.1138439,15.0149015 34.5138439,15.0149015 C35.7138439,15.0149015 36.8138439,15.0149015 38.0138439,15.0149015 C38.7138439,15.0149015 39.4138439,14.6149015 39.7138439,14.0149015 C40.0138439,13.4149015 40.0138439,12.6149015 39.6138439,12.1149015 C39.2138439,11.5149015 38.5138439,11.3149015 37.8138439,11.3149015 L22.8138439,11.3149015 C21.5138439,11.3149015 20.1138439,11.3149015 18.8138439,11.3149015 C18.0138439,11.4149015 17.2138439,10.9149015 17.1138439,10.0149015 C17.1138439,9.81490147 17.1138439,9.71490147 17.1138439,9.51490147 C17.0138439,8.61490147 17.7138439,7.91490147 18.5138439,7.81490147 C18.6138439,7.81490147 18.7138439,7.81490147 18.8138439,7.81490147 L33.7138439,7.81490147 C34.7138439,7.91490147 35.6138439,7.21490147 35.7138439,6.21490147 C35.7138439,5.91490147 35.7138439,5.61490147 35.6138439,5.31490147 C35.4138439,4.61490147 34.8138439,4.21490147 34.1138439,4.21490147 C33.1138439,4.21490147 32.2138439,4.21490147 31.2138439,4.21490147 C30.8138439,4.21490147 30.3138439,4.11490147 29.9138439,4.01490147 C29.1138439,3.91490147 28.6138439,3.11490147 28.7138439,2.31490147 C28.7138439,1.51490147 29.4138439,0.814901471 30.2138439,0.714901471 C31.6138439,0.614901471 46.0138439,0.714901471 48.1138439,0.714901471 L62.3138439,0.714901471 L60.7138439,8.41490147 L50.5138439,8.41490147 L50.5138439,8.51490147 Z M26.0138439,18.2149015 C26.9138439,18.1149015 27.6138439,17.3149015 27.6138439,16.4149015 C27.5138439,15.6149015 26.9138439,14.9149015 26.0138439,14.8149015 L22.8138439,14.8149015 C21.9138439,14.9149015 21.2138439,15.7149015 21.2138439,16.6149015 C21.3138439,17.4149015 21.9138439,18.1149015 22.8138439,18.2149015 L26.0138439,18.2149015 Z" id="Shape" fill="url(#linearGradient-1)"></path>
        </g>
    </g>
</svg>