<svg width="63" height="23" viewBox="0 -5 63 23" fill="none" xmlns="http://www.w3.org/2000/svg">
<g clip-path="url(#clip0_61_7811)">
<path d="M14.1857 2.00579e-07C12.758 -0.000388239 11.3869 0.563424 10.3657 1.57081L10.8916 2.63291L10.6702 2.81739C10.1904 1.97819 9.5029 1.27933 8.67502 0.789327C7.84713 0.299328 6.90733 0.0350257 5.94778 0.0223567C2.93608 0.0223567 0.500155 2.68323 0.500155 5.80249V12.5106C0.496946 12.5679 0.505768 12.6253 0.526055 12.679C0.546343 12.7327 0.577637 12.7815 0.617881 12.8221C0.658124 12.8628 0.706415 12.8943 0.759589 12.9148C0.812762 12.9353 0.869615 12.9442 0.926437 12.941H3.1077C3.16098 12.9417 3.21387 12.9317 3.26324 12.9115C3.31261 12.8912 3.35746 12.8612 3.39514 12.8231C3.43282 12.7851 3.46255 12.7398 3.4826 12.69C3.50265 12.6401 3.51259 12.5867 3.51185 12.5329V5.72981C3.51185 4.18137 4.44192 2.93478 6.02528 2.93478C7.50345 2.93478 8.56087 4.05279 8.56087 5.70186V11.2919C8.5571 11.3473 8.56457 11.403 8.58284 11.4554C8.6011 11.5078 8.62977 11.5559 8.66709 11.5967C8.70441 11.6375 8.7496 11.6702 8.79987 11.6928C8.85015 11.7154 8.90446 11.7273 8.95948 11.7279H11.0466C11.1016 11.7273 11.156 11.7154 11.2062 11.6928C11.2565 11.6702 11.3017 11.6375 11.339 11.5967C11.3763 11.5559 11.405 11.5078 11.4233 11.4554C11.4415 11.403 11.449 11.3473 11.4452 11.2919V5.70186C11.4207 5.34534 11.4696 4.98757 11.5889 4.65107C11.7081 4.31458 11.895 4.00666 12.1379 3.74671C12.3808 3.48677 12.6743 3.28042 13.0001 3.14068C13.3258 3.00094 13.6767 2.93084 14.0306 2.93478C15.614 2.93478 16.4943 4.20373 16.4943 5.72981V12.5217C16.4986 12.6325 16.5456 12.7371 16.6252 12.8133C16.7048 12.8896 16.8108 12.9314 16.9205 12.9298H19.0797C19.1365 12.9331 19.1934 12.9241 19.2465 12.9037C19.2997 12.8832 19.348 12.8516 19.3882 12.8109C19.4285 12.7703 19.4598 12.7215 19.4801 12.6679C19.5003 12.6142 19.5092 12.5568 19.506 12.4994V5.7913C19.506 2.66087 17.1697 2.00579e-07 14.1857 2.00579e-07Z" fill="#00B463"/>
<path d="M33.7227 0.251579H31.7408C31.6857 0.247699 31.6304 0.255423 31.5784 0.27426C31.5264 0.293097 31.4789 0.322639 31.4388 0.361008C31.3987 0.399376 31.3669 0.445731 31.3455 0.497143C31.3241 0.548554 31.3136 0.603892 31.3145 0.659651V0.933568L32.0176 2.05158L31.8238 2.24164C31.2429 1.55135 30.5225 0.994654 29.7108 0.608968C28.8991 0.223281 28.015 0.0175492 27.118 0.00561523C25.3869 0.00561523 23.7267 0.699992 22.5026 1.93598C21.2785 3.17198 20.5908 4.84835 20.5908 6.5963C20.5908 8.34426 21.2785 10.0206 22.5026 11.2566C23.7267 12.4926 25.3869 13.187 27.118 13.187C28.0194 13.1772 28.9082 12.9726 29.7247 12.5869C30.5412 12.2012 31.2664 11.6434 31.8515 10.951L32.0176 11.0851L31.3145 12.2479V12.505C31.3137 12.5617 31.3242 12.618 31.3454 12.6706C31.3666 12.7232 31.3979 12.7709 31.4377 12.811C31.4774 12.8512 31.5247 12.8828 31.5767 12.9042C31.6288 12.9256 31.6846 12.9362 31.7408 12.9354H33.7227C33.7793 12.9378 33.8358 12.9283 33.8886 12.9075C33.9414 12.8867 33.9893 12.8551 34.0294 12.8146C34.0694 12.7742 34.1007 12.7258 34.1213 12.6725C34.1419 12.6192 34.1514 12.5622 34.149 12.505V0.659651C34.1517 0.603408 34.1423 0.547251 34.1215 0.495002C34.1007 0.442753 34.069 0.395645 34.0285 0.356905C33.9881 0.318164 33.9398 0.288701 33.887 0.270524C33.8342 0.252347 33.7782 0.245884 33.7227 0.251579ZM27.118 10.3416C26.1328 10.3416 25.1879 9.94646 24.4913 9.24302C23.7946 8.53958 23.4032 7.58552 23.4032 6.59071C23.4032 5.5959 23.7946 4.64184 24.4913 3.93841C25.1879 3.23497 26.1328 2.83978 27.118 2.83978C28.1032 2.83978 29.0481 3.23497 29.7448 3.93841C30.4414 4.64184 30.8328 5.5959 30.8328 6.59071C30.8328 7.58552 30.4414 8.53958 29.7448 9.24302C29.0481 9.94646 28.1032 10.3416 27.118 10.3416Z" fill="#00B463"/>
<path d="M62.0684 0.251579H60.0865C60.0314 0.247699 59.9761 0.255423 59.9241 0.27426C59.8721 0.293097 59.8246 0.322639 59.7845 0.361008C59.7444 0.399376 59.7126 0.445731 59.6912 0.497143C59.6699 0.548554 59.6593 0.603892 59.6602 0.659651V0.933568L60.3633 2.05158L60.1695 2.24164C59.5887 1.55135 58.8682 0.994654 58.0565 0.608968C57.2448 0.223281 56.3607 0.0175492 55.4637 0.00561523C53.7326 0.00561523 52.0724 0.699992 50.8483 1.93598C49.6242 3.17198 48.9365 4.84835 48.9365 6.5963C48.9365 8.34426 49.6242 10.0206 50.8483 11.2566C52.0724 12.4926 53.7326 13.187 55.4637 13.187C56.3651 13.1772 57.2539 12.9726 58.0704 12.5869C58.8869 12.2012 59.6121 11.6434 60.1972 10.951L60.3633 11.0851L59.6602 12.2479V12.505C59.6594 12.5617 59.6699 12.618 59.6911 12.6706C59.7123 12.7232 59.7436 12.7709 59.7834 12.811C59.8231 12.8512 59.8704 12.8828 59.9224 12.9042C59.9745 12.9256 60.0303 12.9362 60.0865 12.9354H62.0684C62.125 12.9378 62.1815 12.9283 62.2343 12.9075C62.2871 12.8867 62.335 12.8551 62.3751 12.8146C62.4151 12.7742 62.4465 12.7258 62.467 12.6725C62.4876 12.6192 62.497 12.5622 62.4947 12.505V0.659651C62.4974 0.603408 62.488 0.547251 62.4672 0.495002C62.4464 0.442753 62.4147 0.395645 62.3742 0.356905C62.3338 0.318164 62.2855 0.288701 62.2327 0.270524C62.1799 0.252347 62.1239 0.245884 62.0684 0.251579ZM55.4637 10.3416C54.4785 10.3416 53.5336 9.94646 52.837 9.24302C52.1403 8.53958 51.7489 7.58552 51.7489 6.59071C51.7489 5.5959 52.1403 4.64184 52.837 3.93841C53.5336 3.23497 54.4785 2.83978 55.4637 2.83978C56.4489 2.83978 57.3938 3.23497 58.0905 3.93841C58.7871 4.64184 59.1785 5.5959 59.1785 6.59071C59.1785 7.58552 58.7871 8.53958 58.0905 9.24302C57.3938 9.94646 56.4489 10.3416 55.4637 10.3416Z" fill="#00B463"/>
<path d="M47.3087 0.251558H45.3046C44.978 0.251558 44.8008 0.430443 44.8008 0.603734V6.79193C44.8287 7.22436 44.7656 7.65785 44.6159 8.06396C44.4662 8.47008 44.2331 8.83965 43.932 9.14844C43.6309 9.45722 43.2686 9.69825 42.8687 9.85571C42.4689 10.0132 42.0406 10.0835 41.612 10.0621C39.8293 10.0621 38.6778 8.7205 38.6778 6.79193V0.603734C38.6778 0.430443 38.401 0.251558 38.2238 0.251558H36.0093C35.9193 0.259168 35.8349 0.298717 35.7711 0.363187C35.7072 0.427656 35.6681 0.512879 35.6605 0.603734V6.7528C35.6428 8.36014 36.2559 9.90923 37.3659 11.0615C38.4759 12.2137 39.9925 12.8754 41.5843 12.9019C43.1052 12.9022 44.5739 12.3416 45.7143 11.3255L45.8306 11.4317L44.9226 12.6727V13.1702C44.9226 14.4391 43.0403 15.1491 41.9386 15.1491H41.2355C41.1791 15.1453 41.1224 15.1529 41.0689 15.1714C41.0154 15.19 40.9661 15.2191 40.9238 15.2571C40.8816 15.2951 40.8472 15.3411 40.8228 15.3927C40.7984 15.4442 40.7843 15.5001 40.7815 15.5571V17.5807C40.7914 17.6944 40.8439 17.8 40.9283 17.8758C41.0127 17.9517 41.1226 17.9921 41.2355 17.9888H41.9386C45.2991 17.9888 47.7627 16.0099 47.7627 12.2814V0.603734C47.7475 0.496807 47.6916 0.400105 47.6067 0.334296C47.5219 0.268488 47.4149 0.238791 47.3087 0.251558Z" fill="#00B463"/>
</g>
<defs>
<clipPath id="clip0_61_7811">
<rect width="62" height="18" fill="white" transform="translate(0.5)"/>
</clipPath>
</defs>
</svg>
